<svg version="1.1" id="Layer_1" xmlns="http://www.w3.org/2000/svg" xmlns:xlink="http://www.w3.org/1999/xlink" x="0px" y="0px"
	 width="100%" viewBox="0 0 500 500" enable-background="new 0 0 500 500" xml:space="preserve">
<path fill="#000000" opacity="1.000000" stroke="none" 
	d="
M501.000000,152.000000 
	C501.000000,215.354233 501.000000,278.708466 500.606140,342.574219 
	C499.497070,341.141663 498.612030,339.241699 498.093872,337.246460 
	C494.315979,322.699524 491.724365,307.727783 486.601074,293.676697 
	C480.283813,276.351135 472.265991,259.563080 461.510071,244.376877 
	C454.507050,234.489380 447.258331,224.760696 439.753601,215.249725 
	C435.566986,209.943848 430.847076,205.004730 425.970306,200.313232 
	C421.486816,196.000076 416.561188,192.126022 411.667450,188.264954 
	C405.397736,183.318253 399.195679,178.228729 392.544037,173.837646 
	C384.249725,168.362183 375.599884,163.408142 366.962372,158.476166 
	C361.640411,155.437317 356.055054,152.859787 350.587952,150.075134 
	C350.281067,150.337997 349.974213,150.600861 349.667328,150.863724 
	C398.040131,201.708664 424.182831,262.089081 428.130920,332.270874 
	C428.377716,333.052094 428.663818,333.535309 428.991608,334.484253 
	C429.009735,341.295471 428.986176,347.641022 428.691956,354.188110 
	C428.338257,355.268127 428.255249,356.146606 428.120850,357.481415 
	C426.812317,370.247528 425.555176,382.557343 424.239288,395.442474 
	C434.201050,391.413788 444.485718,388.001190 454.062744,383.182312 
	C464.746124,377.806702 474.869781,371.288422 485.073425,365.001892 
	C490.559357,361.622009 495.702301,357.685394 501.000000,354.000000 
	C501.000000,402.972961 501.000000,451.945892 501.000000,500.959412 
	C334.452393,500.959412 167.904785,500.959412 1.000000,500.959412 
	C1.000000,452.646362 1.000000,404.291840 1.366976,355.401611 
	C4.335597,356.706604 6.919875,358.572479 9.541721,360.383942 
	C26.126652,371.842865 43.415257,381.782654 62.226456,389.464142 
	C77.064163,395.523102 92.086029,400.286621 107.710167,403.236633 
	C117.101036,405.009735 126.645378,406.511414 136.171509,406.904327 
	C151.861053,407.551453 167.645386,408.024963 183.287949,407.007050 
	C195.567291,406.208008 207.725220,403.214142 219.876953,400.881958 
	C230.525848,398.838226 240.865189,395.732971 250.735245,390.203033 
	C244.378937,389.808899 238.551819,389.544556 232.742599,389.063904 
	C224.713318,388.399475 216.555893,388.264771 208.707581,386.659973 
	C195.328842,383.924316 181.975708,380.779877 168.934845,376.759369 
	C157.159592,373.129028 145.640137,368.499634 134.339798,363.552582 
	C125.518127,359.690643 116.819466,355.257996 108.765099,350.006866 
	C98.854050,343.545258 89.388229,336.311005 80.247147,328.782745 
	C70.686302,320.908752 61.165226,312.830811 52.688217,303.841095 
	C44.498489,295.156067 37.710072,285.156311 30.185591,275.831268 
	C28.818186,274.136688 26.870378,272.910431 24.848703,271.174469 
	C22.323086,277.043945 20.234783,282.168365 17.933325,287.195221 
	C10.740032,302.906921 6.764751,319.510986 3.874358,336.453644 
	C3.485524,338.732880 1.985489,340.822540 1.000005,343.000000 
	C1.000000,280.979095 1.000000,218.958206 1.403112,156.432907 
	C2.229239,156.749130 2.880162,157.528229 3.038548,158.397110 
	C4.125028,164.357346 4.565403,170.492874 6.232718,176.278320 
	C10.274508,190.302994 13.865624,204.592865 19.523352,217.979172 
	C25.406666,231.899231 32.342613,245.689514 40.934448,258.067657 
	C51.025707,272.605988 62.702766,286.231293 75.007629,298.983124 
	C84.047020,308.350861 95.026398,315.908142 105.459908,323.853760 
	C119.113129,334.251465 134.135483,342.373322 150.019669,349.248077 
	C150.234985,349.128448 150.341675,348.864380 150.320007,348.277039 
	C148.691086,346.037476 147.259293,344.062256 145.678055,342.215027 
	C138.924561,334.325409 131.278503,327.041962 125.541206,318.476898 
	C116.585785,305.107635 108.234116,291.226624 100.905243,276.907990 
	C94.689934,264.764954 89.365463,251.980301 85.331032,238.957794 
	C81.122330,225.372787 78.389328,211.254654 76.015648,197.199951 
	C73.929588,184.848358 71.920029,172.228271 72.241615,159.787903 
	C72.680008,142.829117 75.377617,125.929749 77.053902,108.999695 
	C77.168343,107.843826 77.034683,106.565033 76.600182,105.515770 
	C76.476952,105.218201 74.777451,105.277588 73.974388,105.602386 
	C64.366936,109.488091 54.470997,112.832932 45.297546,117.571762 
	C35.753853,122.501854 26.913546,128.794479 17.770973,134.499817 
	C12.175489,137.991623 6.589984,141.499390 1.000000,145.000000 
	C1.000000,97.073013 1.000000,49.146027 1.000000,1.000000 
	C48.687336,1.000000 96.375008,1.000000 144.588928,1.382763 
	C144.523972,3.258753 144.160324,4.899131 143.305130,6.221633 
	C137.168060,15.712068 130.700989,24.997372 124.813255,34.637638 
	C121.350487,40.307392 118.518608,46.402843 115.827393,52.494339 
	C111.356995,62.612972 106.525894,72.657379 103.160515,83.154259 
	C100.027855,92.925240 98.191757,103.178078 96.544357,113.341888 
	C94.598206,125.348923 92.848717,137.453613 92.172882,149.580551 
	C91.603226,159.802200 92.530693,170.125229 93.106110,180.385956 
	C93.445671,186.441055 93.867493,192.577408 95.167992,198.475311 
	C98.093414,211.742477 101.462730,224.917206 104.925987,238.057175 
	C106.039589,242.282318 108.013123,246.280823 109.593246,250.383011 
	C111.123459,244.905548 111.563133,239.704712 111.897217,234.497101 
	C112.332748,227.708176 111.943062,220.770355 113.224266,214.151291 
	C116.032288,199.644226 118.854614,185.046692 123.196091,170.955948 
	C127.534271,156.875885 132.706131,142.845047 139.392136,129.752518 
	C146.544189,115.747391 155.802948,102.806709 164.304214,89.504982 
	C174.082657,74.204857 187.375183,61.931572 200.276855,49.477360 
	C208.298996,41.733425 217.905289,35.636723 226.728714,28.709171 
	C227.874817,27.809324 228.590347,26.361061 229.388550,25.319229 
	C225.788498,23.250334 222.978638,21.184006 219.846527,19.909727 
	C201.199921,12.323459 182.205505,5.870867 162.160583,2.999423 
	C161.361313,2.884926 160.716690,1.690989 160.000000,0.999999 
	C220.020889,1.000000 280.041779,1.000000 340.586365,1.389996 
	C340.117065,2.236928 339.166779,2.865559 338.124603,3.124315 
	C327.413361,5.783794 316.572876,7.992752 305.991699,11.090022 
	C289.584503,15.892660 273.824341,22.456392 259.159821,31.305681 
	C246.698196,38.825630 234.099945,46.183998 223.332764,56.215149 
	C219.990692,59.328773 215.568375,61.313122 212.355530,64.528778 
	C206.176636,70.713089 201.127106,78.150986 194.465988,83.695541 
	C186.728760,90.135818 181.879364,98.660431 176.417953,106.515480 
	C167.863815,118.818756 161.195175,132.434998 153.779556,145.524368 
	C153.103561,146.717575 152.801941,148.122879 152.326492,149.429703 
	C221.864090,87.107956 301.790771,60.682682 395.133728,76.681755 
	C394.699829,75.202972 394.504272,74.180412 394.108063,73.242599 
	C390.915527,65.685959 388.192657,57.875317 384.353882,50.659615 
	C377.714661,38.179985 370.505951,25.994999 363.263580,13.848924 
	C360.569672,9.331038 357.110321,5.269590 354.000000,1.000001 
	C402.926758,1.000000 451.853485,1.000000 501.000000,1.000000 
	C501.000000,49.354004 501.000000,97.708344 500.640442,146.588470 
	C490.936859,140.682434 481.678864,134.120987 472.228699,127.849144 
	C457.988281,118.398155 442.480957,111.174469 426.273407,106.271317 
	C410.138672,101.390182 393.413788,98.248619 376.776764,95.312851 
	C365.603363,93.341209 354.115387,92.075722 342.799103,92.272537 
	C329.661469,92.501022 316.554932,94.648193 303.439850,96.010414 
	C287.229065,97.694191 271.608002,101.879410 256.295776,107.312538 
	C254.230087,108.045502 252.277298,109.096733 250.272232,110.000587 
	C345.721191,112.226349 419.657715,154.022247 475.547058,230.852386 
	C477.068176,226.989395 477.987915,224.203903 479.230133,221.570526 
	C488.709076,201.476227 495.058136,180.462357 498.226471,158.460251 
	C498.549072,156.220154 500.047333,154.149368 501.000000,152.000000 
M261.353088,235.991150 
	C260.942261,235.960083 260.531464,235.929016 259.705841,235.248077 
	C257.455597,234.820938 255.205338,234.393799 252.308273,233.657425 
	C248.993286,233.413345 245.463608,232.633453 243.729889,237.388275 
	C243.527313,237.638672 243.286026,237.843475 242.272369,238.027328 
	C232.916794,240.279709 231.179260,255.238663 234.758453,263.104645 
	C241.733810,278.434418 258.933105,277.331299 268.735870,269.188324 
	C271.251465,267.098633 271.580048,262.376129 273.069458,258.082977 
	C273.332550,255.389084 273.595642,252.695190 273.935364,249.200302 
	C273.823578,243.491623 267.806854,236.931427 261.353088,235.991150 
M296.978821,254.753204 
	C296.705078,256.157379 296.431305,257.561523 296.008057,259.797302 
	C294.993835,264.197388 293.979584,268.597504 292.377991,273.238739 
	C291.793793,274.113251 291.209625,274.987793 290.110413,276.300354 
	C286.903564,283.778046 280.687286,288.355957 273.841156,291.758392 
	C266.280090,295.516052 258.416443,299.218872 249.456085,297.076141 
	C242.986252,295.528961 236.359161,294.404724 230.116486,292.201416 
	C222.270142,289.432068 214.611938,286.027039 207.118622,282.389435 
	C199.941940,278.905579 193.080261,274.772858 185.650360,270.390747 
	C181.188538,267.238434 176.726715,264.086151 171.858017,260.318329 
	C168.557510,257.881073 165.257019,255.443802 162.663574,252.914062 
	C172.650543,246.511902 182.584412,240.024887 192.640808,233.733719 
	C201.083466,228.452087 211.131424,218.455063 215.442734,209.595093 
	C189.620926,221.202621 167.160568,238.535599 142.288345,253.140671 
	C142.469025,253.767761 142.448013,254.707626 142.861237,254.974091 
	C147.522018,257.979645 152.249451,260.881927 157.588058,264.149933 
	C161.359833,266.468018 165.131607,268.786072 169.196701,271.727509 
	C174.264389,275.049561 179.126923,278.752228 184.441269,281.616669 
	C196.590469,288.165039 208.732101,294.809875 221.298508,300.481110 
	C237.266785,307.687622 254.338058,309.487518 271.175598,304.805328 
	C285.200439,300.905273 295.141663,290.924744 302.224609,277.412292 
	C302.758423,276.242523 303.292206,275.072723 304.113281,273.200897 
	C305.031433,268.457123 305.949585,263.713348 306.974579,258.169342 
	C306.927826,256.827942 306.881073,255.486526 306.969055,253.222473 
	C306.090088,247.037079 305.412201,240.812271 304.212830,234.689651 
	C303.840240,232.787613 302.454987,230.417480 300.840546,229.547958 
	C295.620270,226.736404 290.077850,224.522888 284.659576,222.078964 
	C290.456879,230.941742 295.227417,239.930054 297.125092,250.932785 
	C297.119141,251.963821 297.113190,252.994843 296.978821,254.753204 
M247.265015,281.315308 
	C246.825500,281.363556 246.385986,281.411774 245.472458,281.064148 
	C242.631058,283.437653 239.789658,285.811157 236.779755,288.325378 
	C247.805359,294.532410 248.937775,293.263428 252.196030,289.764069 
	C253.708176,289.597809 255.220306,289.431580 257.019775,289.995758 
	C260.644379,293.976440 264.761353,291.330902 268.778656,291.010986 
	C271.766541,290.773041 271.270020,289.151703 271.635986,287.070953 
	C275.839722,288.338898 280.987213,285.059875 283.827240,279.041534 
	C278.228577,279.041534 272.799255,278.943970 267.380188,279.135437 
	C266.453247,279.168213 265.569916,280.435425 263.838806,281.079559 
	C262.181030,281.060913 260.523254,281.042236 258.469788,280.331818 
	C254.894058,280.590820 251.318329,280.849792 247.265015,281.315308 
M210.733444,253.261063 
	C210.870087,251.857727 211.006744,250.454376 211.808945,248.565201 
	C212.520523,244.373199 213.232101,240.181213 214.595673,235.734802 
	C215.200104,234.967651 215.952179,234.275589 216.386276,233.421829 
	C221.101349,224.148666 228.509445,217.577454 238.026566,213.986954 
	C252.804245,208.411850 267.660522,210.637115 281.729401,216.532379 
	C296.172974,222.584671 310.100037,229.855072 323.214813,239.594666 
	C324.066040,239.779007 325.058563,239.742691 325.745911,240.182922 
	C330.841980,243.446838 335.877350,246.805496 341.290222,250.699509 
	C342.832489,251.799988 344.374786,252.900467 345.367889,254.408340 
	C341.602356,256.951050 337.856750,259.523895 334.066589,262.029358 
	C328.500366,265.708832 323.330536,270.517426 317.225494,272.737885 
	C305.817963,276.886841 301.339783,287.079193 293.086487,296.083008 
	C296.114746,295.758209 297.715942,295.977020 298.926208,295.389954 
	C304.557495,292.658447 310.295563,290.050964 315.602081,286.764069 
	C331.575470,276.870148 347.386261,266.712311 363.167145,256.513062 
	C363.960541,256.000275 363.877625,254.131561 363.756775,252.341980 
	C360.239532,250.185822 356.722290,248.029663 352.901672,245.222717 
	C347.641754,242.103928 342.381836,238.985138 336.873291,235.212128 
	C335.322144,234.305145 333.696625,233.504028 332.231232,232.474945 
	C316.094788,221.142975 298.977936,211.781235 280.219727,205.415939 
	C265.943237,200.571457 251.626343,198.198273 236.966003,203.030090 
	C222.084793,207.934708 211.208145,217.412476 204.976715,232.845718 
	C203.590775,236.864243 202.204849,240.882767 200.106674,245.347595 
	C200.130249,248.188675 200.153824,251.029755 200.081589,254.725998 
	C200.483109,257.134521 200.884628,259.543030 201.142075,262.771606 
	C201.881271,275.418182 209.646652,283.736786 222.006332,285.701355 
	C222.426437,286.051239 222.846542,286.401154 223.266632,286.751038 
	C223.444626,286.525452 223.807922,286.139465 223.772537,286.098602 
	C223.315536,285.570648 222.801743,285.091858 222.067490,283.960663 
	C218.975647,278.785553 215.584259,273.758942 212.914734,268.374451 
	C211.520782,265.562805 211.396896,262.121460 210.868378,258.134338 
	C210.875336,256.727142 210.882309,255.319962 210.733444,253.261063 
M289.732910,252.829330 
	C290.715363,252.375565 291.697845,251.921799 291.964539,251.798630 
	C291.964539,249.275360 291.720703,247.052734 292.014435,244.903564 
	C292.658630,240.190002 290.238251,236.927109 285.899628,237.256912 
	C289.239929,232.309128 287.581818,229.255966 279.084381,224.772278 
	C279.084381,230.615295 279.076843,236.432510 279.113159,242.249451 
	C279.114563,242.472580 279.538666,242.693069 279.995148,243.556793 
	C280.266876,244.386017 280.538605,245.215256 280.168884,246.379776 
	C279.875275,250.896286 279.581665,255.412781 279.302582,260.616974 
	C280.055359,260.807251 280.808136,260.997528 281.560913,261.187805 
	C281.149994,261.439209 280.739044,261.690582 280.328125,261.941956 
	C281.121521,263.601898 281.914886,265.261810 282.003143,266.941681 
	C280.536377,266.369049 279.069611,265.796448 277.758850,265.284729 
	C274.752136,269.080811 271.770111,272.845764 268.522614,276.945892 
	C273.716644,276.945892 278.808289,277.023102 283.895844,276.912750 
	C286.372925,276.859039 288.103546,275.915833 286.965485,272.250244 
	C288.264252,271.607758 290.393341,271.238831 290.711517,270.273224 
	C291.818756,266.912964 292.081177,263.282745 293.072815,259.873840 
	C294.267273,255.767700 292.459930,255.144104 289.005829,255.157135 
	C289.023315,254.463959 289.040802,253.770798 289.732910,252.829330 
M226.903107,266.287109 
	C226.528854,263.841766 226.154617,261.396393 225.909698,258.197906 
	C228.326630,254.818436 229.107727,251.455582 226.029633,247.397385 
	C226.395828,245.941650 226.762039,244.485901 227.757080,243.254837 
	C228.466171,243.317581 229.573029,243.703186 229.823959,243.394058 
	C232.945343,239.548569 235.942337,235.602097 239.487762,231.013168 
	C233.308197,231.013168 227.897491,230.770508 222.526688,231.127655 
	C220.246216,231.279312 217.944260,232.633255 219.262985,235.987503 
	C218.052551,237.607956 216.278702,239.062912 215.744370,240.881973 
	C214.481033,245.182892 211.740097,249.685852 215.816162,254.019989 
	C213.421143,257.685883 214.585068,268.107605 217.915924,271.067719 
	C218.470810,271.560822 219.881958,271.090424 220.871979,271.734131 
	C220.341873,272.705841 219.811768,273.677521 219.261978,274.685303 
	C221.472763,277.195709 223.672562,279.693573 226.500900,282.905182 
	C228.866699,276.939697 228.365524,271.981842 226.903107,266.287109 
M271.132538,220.409378 
	C270.385590,219.261612 269.875854,217.446884 268.850403,217.082214 
	C264.549042,215.552567 260.093292,214.457062 255.694061,213.202576 
	C255.719925,213.978470 255.745789,214.754364 255.771652,215.530258 
	C254.665543,215.985275 252.725845,217.021957 252.577164,216.808884 
	C249.941650,213.032059 245.984238,214.902756 243.135452,215.323425 
	C240.386353,215.729355 235.900650,216.090256 235.950912,220.984497 
	C231.331207,219.415359 227.408417,221.979584 223.966736,229.010208 
	C229.577316,229.010208 234.977921,229.060760 240.374069,228.928818 
	C240.890549,228.916183 241.379211,227.765778 241.811493,227.203278 
	C241.811493,227.203278 241.750900,227.271851 242.613388,227.032288 
	C244.103745,227.046906 245.594086,227.061523 247.524216,227.777161 
	C251.630630,227.449631 255.737030,227.122101 260.701874,227.000977 
	C262.465637,226.980972 264.229370,226.960968 265.759216,227.593140 
	C265.495972,228.517349 264.744904,230.027985 265.043701,230.276550 
	C268.679535,233.301132 272.469788,236.140060 276.781647,239.459625 
	C276.781647,233.986404 277.067169,228.911667 276.670380,223.890869 
	C276.446411,221.056335 274.780609,218.916229 271.132538,220.409378 
M389.076172,264.336609 
	C388.731232,266.783966 388.416534,269.236023 388.036530,271.677917 
	C385.409302,288.561066 383.893768,305.720947 379.799805,322.241486 
	C376.072113,337.284241 370.509796,352.083038 363.963654,366.155548 
	C357.804199,379.396729 349.910400,391.963104 341.655426,404.059143 
	C333.975189,415.313019 325.176147,425.874146 316.177124,436.132782 
	C310.013275,443.159332 302.810486,449.311829 295.784393,455.529907 
	C291.875641,458.989197 287.282013,461.661652 283.170502,464.908325 
	C278.829803,468.335999 274.695343,472.024872 270.350525,475.701385 
	C277.610504,478.931580 283.712738,482.255890 290.204285,484.403137 
	C302.248474,488.386963 314.416840,492.104980 326.733002,495.118408 
	C334.981323,497.136597 343.559082,497.874542 352.027496,498.857910 
	C353.351440,499.011627 355.368256,497.770447 356.228790,496.573364 
	C360.594727,490.500275 364.456268,484.058868 368.916656,478.060455 
	C380.394012,462.625519 388.396271,445.220947 394.348419,427.306580 
	C400.207458,409.672516 403.874023,391.133331 406.654510,372.712341 
	C408.660187,359.424683 408.295685,345.654510 407.775055,332.146301 
	C407.281494,319.341553 405.872833,306.479675 403.630829,293.862488 
	C401.658997,282.765778 398.119110,271.931702 394.966888,261.070129 
	C393.981903,257.676239 392.005157,254.570145 390.482391,251.332306 
	C390.009583,251.440704 389.536804,251.549118 389.063995,251.657516 
	C389.063995,255.564926 389.063995,259.472321 389.076172,264.336609 
M288.883270,395.555634 
	C282.929932,398.396362 277.146881,401.694458 270.989441,403.986969 
	C256.048431,409.549622 241.141281,415.385773 225.820145,419.684967 
	C214.297348,422.918335 202.147034,423.901459 190.287323,425.951447 
	C175.604050,428.489532 160.919266,430.161804 145.979752,428.117767 
	C134.240173,426.511536 122.436729,425.365906 110.652695,424.099091 
	C109.289940,423.952637 107.869736,424.340485 105.784355,424.550201 
	C107.311928,428.681396 108.486336,432.221619 109.917404,435.654877 
	C113.301338,443.773254 116.176170,452.190430 120.416992,459.843994 
	C126.271332,470.409637 133.016235,480.501953 139.735138,490.559570 
	C142.909286,495.311005 146.104294,500.553436 153.556641,499.013336 
	C161.118301,497.450653 168.812180,496.535614 176.392303,495.051666 
	C181.380722,494.075012 186.385117,492.925354 191.179688,491.267151 
	C200.597153,488.010223 209.936508,484.503296 219.194153,480.813690 
	C236.382950,473.963104 252.201263,464.538391 266.943207,453.497650 
	C276.410431,446.407288 285.151428,438.314423 293.945374,430.369232 
	C299.899902,424.989380 306.087036,419.624725 310.919678,413.298065 
	C319.717987,401.779755 327.942139,389.777313 335.720795,377.541351 
	C341.090820,369.094208 345.308563,359.914551 350.041290,351.062256 
	C349.587036,350.719086 349.132812,350.375946 348.678589,350.032776 
	C346.078644,352.178284 343.461975,354.303955 340.881805,356.472992 
	C332.401520,363.601898 324.216095,371.120453 315.380432,377.776428 
	C307.097900,384.015656 298.132477,389.348358 288.883270,395.555634 
M229.952026,269.622589 
	C230.311310,274.596252 230.580185,279.579376 231.099304,284.536316 
	C231.215683,285.647461 231.980072,287.029297 232.880676,287.596191 
	C233.444778,287.951263 235.012527,287.252411 235.794922,286.615143 
	C237.849182,284.941895 239.619110,282.916992 241.688980,281.266235 
	C244.364319,279.132599 243.789917,277.976318 241.102982,276.267517 
	C238.156097,274.393372 235.722961,271.727631 232.934708,269.577026 
	C232.194336,269.005981 230.972107,269.059692 229.952026,269.622589 
z"/>
<path fill="#4D5255" opacity="1.000000" stroke="none" 
	d="
M428.170197,331.972870 
	C424.182831,262.089081 398.040131,201.708664 349.667328,150.863724 
	C349.974213,150.600861 350.281067,150.337997 350.587952,150.075134 
	C356.055054,152.859787 361.640411,155.437317 366.962372,158.476166 
	C375.599884,163.408142 384.249725,168.362183 392.544037,173.837646 
	C399.195679,178.228729 405.397736,183.318253 411.667450,188.264954 
	C416.561188,192.126022 421.486816,196.000076 425.970306,200.313232 
	C430.847076,205.004730 435.566986,209.943848 439.753601,215.249725 
	C447.258331,224.760696 454.507050,234.489380 461.510071,244.376877 
	C472.265991,259.563080 480.283813,276.351135 486.601074,293.676697 
	C491.724365,307.727783 494.315979,322.699524 498.093872,337.246460 
	C498.612030,339.241699 499.497070,341.141663 500.606140,343.042847 
	C501.000000,346.361298 501.000000,349.722565 501.000000,353.541931 
	C495.702301,357.685394 490.559357,361.622009 485.073425,365.001892 
	C474.869781,371.288422 464.746124,377.806702 454.062744,383.182312 
	C444.485718,388.001190 434.201050,391.413788 424.239288,395.442474 
	C425.555176,382.557343 426.812317,370.247528 428.402557,357.387512 
	C428.811310,355.887054 428.886963,354.936798 428.962616,353.986572 
	C428.986176,347.641022 429.009735,341.295471 429.172729,334.306335 
	C428.931488,333.099457 428.550842,332.536163 428.170197,331.972870 
z"/>
<path fill="#4D5255" opacity="1.000000" stroke="none" 
	d="
M149.911041,349.103607 
	C134.135483,342.373322 119.113129,334.251465 105.459908,323.853760 
	C95.026398,315.908142 84.047020,308.350861 75.007629,298.983124 
	C62.702766,286.231293 51.025707,272.605988 40.934448,258.067657 
	C32.342613,245.689514 25.406666,231.899231 19.523352,217.979172 
	C13.865624,204.592865 10.274508,190.302994 6.232718,176.278320 
	C4.565403,170.492874 4.125028,164.357346 3.038548,158.397110 
	C2.880162,157.528229 2.229239,156.749130 1.403112,155.964249 
	C1.000000,152.638718 1.000000,149.277420 1.000000,145.458069 
	C6.589984,141.499390 12.175489,137.991623 17.770973,134.499817 
	C26.913546,128.794479 35.753853,122.501854 45.297546,117.571762 
	C54.470997,112.832932 64.366936,109.488091 73.974388,105.602386 
	C74.777451,105.277588 76.476952,105.218201 76.600182,105.515770 
	C77.034683,106.565033 77.168343,107.843826 77.053902,108.999695 
	C75.377617,125.929749 72.680008,142.829117 72.241615,159.787903 
	C71.920029,172.228271 73.929588,184.848358 76.015648,197.199951 
	C78.389328,211.254654 81.122330,225.372787 85.331032,238.957794 
	C89.365463,251.980301 94.689934,264.764954 100.905243,276.907990 
	C108.234116,291.226624 116.585785,305.107635 125.541206,318.476898 
	C131.278503,327.041962 138.924561,334.325409 145.678055,342.215027 
	C147.259293,344.062256 148.691086,346.037476 150.182251,348.399231 
	C150.172867,348.844635 149.911041,349.103607 149.911041,349.103607 
z"/>
<path fill="#4D5255" opacity="1.000000" stroke="none" 
	d="
M159.533875,0.999999 
	C160.716690,1.690989 161.361313,2.884926 162.160583,2.999423 
	C182.205505,5.870867 201.199921,12.323459 219.846527,19.909727 
	C222.978638,21.184006 225.788498,23.250334 229.388550,25.319229 
	C228.590347,26.361061 227.874817,27.809324 226.728714,28.709171 
	C217.905289,35.636723 208.298996,41.733425 200.276855,49.477360 
	C187.375183,61.931572 174.082657,74.204857 164.304214,89.504982 
	C155.802948,102.806709 146.544189,115.747391 139.392136,129.752518 
	C132.706131,142.845047 127.534271,156.875885 123.196091,170.955948 
	C118.854614,185.046692 116.032288,199.644226 113.224266,214.151291 
	C111.943062,220.770355 112.332748,227.708176 111.897217,234.497101 
	C111.563133,239.704712 111.123459,244.905548 109.593246,250.383011 
	C108.013123,246.280823 106.039589,242.282318 104.925987,238.057175 
	C101.462730,224.917206 98.093414,211.742477 95.167992,198.475311 
	C93.867493,192.577408 93.445671,186.441055 93.106110,180.385956 
	C92.530693,170.125229 91.603226,159.802200 92.172882,149.580551 
	C92.848717,137.453613 94.598206,125.348923 96.544357,113.341888 
	C98.191757,103.178078 100.027855,92.925240 103.160515,83.154259 
	C106.525894,72.657379 111.356995,62.612972 115.827393,52.494339 
	C118.518608,46.402843 121.350487,40.307392 124.813255,34.637638 
	C130.700989,24.997372 137.168060,15.712068 143.305130,6.221633 
	C144.160324,4.899131 144.523972,3.258753 145.057587,1.382763 
	C149.689255,1.000000 154.378510,1.000000 159.533875,0.999999 
z"/>
<path fill="#4D5255" opacity="1.000000" stroke="none" 
	d="
M501.000000,151.583344 
	C500.047333,154.149368 498.549072,156.220154 498.226471,158.460251 
	C495.058136,180.462357 488.709076,201.476227 479.230133,221.570526 
	C477.987915,224.203903 477.068176,226.989395 475.547058,230.852386 
	C419.657715,154.022247 345.721191,112.226349 250.272232,110.000587 
	C252.277298,109.096733 254.230087,108.045502 256.295776,107.312538 
	C271.608002,101.879410 287.229065,97.694191 303.439850,96.010414 
	C316.554932,94.648193 329.661469,92.501022 342.799103,92.272537 
	C354.115387,92.075722 365.603363,93.341209 376.776764,95.312851 
	C393.413788,98.248619 410.138672,101.390182 426.273407,106.271317 
	C442.480957,111.174469 457.988281,118.398155 472.228699,127.849144 
	C481.678864,134.120987 490.936859,140.682434 500.640442,147.057129 
	C501.000000,148.388885 501.000000,149.777786 501.000000,151.583344 
z"/>
<path fill="#4D5255" opacity="1.000000" stroke="none" 
	d="
M1.000005,343.460632 
	C1.985489,340.822540 3.485524,338.732880 3.874358,336.453644 
	C6.764751,319.510986 10.740032,302.906921 17.933325,287.195221 
	C20.234783,282.168365 22.323086,277.043945 24.848703,271.174469 
	C26.870378,272.910431 28.818186,274.136688 30.185591,275.831268 
	C37.710072,285.156311 44.498489,295.156067 52.688217,303.841095 
	C61.165226,312.830811 70.686302,320.908752 80.247147,328.782745 
	C89.388229,336.311005 98.854050,343.545258 108.765099,350.006866 
	C116.819466,355.257996 125.518127,359.690643 134.339798,363.552582 
	C145.640137,368.499634 157.159592,373.129028 168.934845,376.759369 
	C181.975708,380.779877 195.328842,383.924316 208.707581,386.659973 
	C216.555893,388.264771 224.713318,388.399475 232.742599,389.063904 
	C238.551819,389.544556 244.378937,389.808899 250.735245,390.203033 
	C240.865189,395.732971 230.525848,398.838226 219.876953,400.881958 
	C207.725220,403.214142 195.567291,406.208008 183.287949,407.007050 
	C167.645386,408.024963 151.861053,407.551453 136.171509,406.904327 
	C126.645378,406.511414 117.101036,405.009735 107.710167,403.236633 
	C92.086029,400.286621 77.064163,395.523102 62.226456,389.464142 
	C43.415257,381.782654 26.126652,371.842865 9.541721,360.383942 
	C6.919875,358.572479 4.335597,356.706604 1.366976,354.932922 
	C1.000000,351.307098 1.000000,347.614166 1.000005,343.460632 
z"/>
<path fill="#4D5255" opacity="1.000000" stroke="none" 
	d="
M353.555847,1.000001 
	C357.110321,5.269590 360.569672,9.331038 363.263580,13.848924 
	C370.505951,25.994999 377.714661,38.179985 384.353882,50.659615 
	C388.192657,57.875317 390.915527,65.685959 394.108063,73.242599 
	C394.504272,74.180412 394.699829,75.202972 395.133728,76.681755 
	C301.790771,60.682682 221.864090,87.107956 152.326492,149.429703 
	C152.801941,148.122879 153.103561,146.717575 153.779556,145.524368 
	C161.195175,132.434998 167.863815,118.818756 176.417953,106.515480 
	C181.879364,98.660431 186.728760,90.135818 194.465988,83.695541 
	C201.127106,78.150986 206.176636,70.713089 212.355530,64.528778 
	C215.568375,61.313122 219.990692,59.328773 223.332764,56.215149 
	C234.099945,46.183998 246.698196,38.825630 259.159821,31.305681 
	C273.824341,22.456392 289.584503,15.892660 305.991699,11.090022 
	C316.572876,7.992752 327.413361,5.783794 338.124603,3.124315 
	C339.166779,2.865559 340.117065,2.236928 341.054993,1.389996 
	C341.444458,1.000000 341.888885,1.000000 342.590759,1.357323 
	C344.334473,3.397833 345.517700,3.744600 346.000000,1.000000 
	C348.370575,1.000000 350.741119,1.000000 353.555847,1.000001 
z"/>
<path fill="#000000" opacity="1.000000" stroke="none" 
	d="
M345.625000,1.000000 
	C345.517700,3.744600 344.334473,3.397833 342.924103,1.357323 
	C343.750000,1.000000 344.500000,1.000000 345.625000,1.000000 
z"/>
<path fill="#4D5255" opacity="1.000000" stroke="none" 
	d="
M389.070068,263.858154 
	C389.063995,259.472321 389.063995,255.564926 389.063995,251.657516 
	C389.536804,251.549118 390.009583,251.440704 390.482391,251.332306 
	C392.005157,254.570145 393.981903,257.676239 394.966888,261.070129 
	C398.119110,271.931702 401.658997,282.765778 403.630829,293.862488 
	C405.872833,306.479675 407.281494,319.341553 407.775055,332.146301 
	C408.295685,345.654510 408.660187,359.424683 406.654510,372.712341 
	C403.874023,391.133331 400.207458,409.672516 394.348419,427.306580 
	C388.396271,445.220947 380.394012,462.625519 368.916656,478.060455 
	C364.456268,484.058868 360.594727,490.500275 356.228790,496.573364 
	C355.368256,497.770447 353.351440,499.011627 352.027496,498.857910 
	C343.559082,497.874542 334.981323,497.136597 326.733002,495.118408 
	C314.416840,492.104980 302.248474,488.386963 290.204285,484.403137 
	C283.712738,482.255890 277.610504,478.931580 270.350525,475.701385 
	C274.695343,472.024872 278.829803,468.335999 283.170502,464.908325 
	C287.282013,461.661652 291.875641,458.989197 295.784393,455.529907 
	C302.810486,449.311829 310.013275,443.159332 316.177124,436.132782 
	C325.176147,425.874146 333.975189,415.313019 341.655426,404.059143 
	C349.910400,391.963104 357.804199,379.396729 363.963654,366.155548 
	C370.509796,352.083038 376.072113,337.284241 379.799805,322.241486 
	C383.893768,305.720947 385.409302,288.561066 388.036530,271.677917 
	C388.416534,269.236023 388.731232,266.783966 389.070068,263.858154 
z"/>
<path fill="#4D5255" opacity="1.000000" stroke="none" 
	d="
M289.175415,395.317810 
	C298.132477,389.348358 307.097900,384.015656 315.380432,377.776428 
	C324.216095,371.120453 332.401520,363.601898 340.881805,356.472992 
	C343.461975,354.303955 346.078644,352.178284 348.678589,350.032776 
	C349.132812,350.375946 349.587036,350.719086 350.041290,351.062256 
	C345.308563,359.914551 341.090820,369.094208 335.720795,377.541351 
	C327.942139,389.777313 319.717987,401.779755 310.919678,413.298065 
	C306.087036,419.624725 299.899902,424.989380 293.945374,430.369232 
	C285.151428,438.314423 276.410431,446.407288 266.943207,453.497650 
	C252.201263,464.538391 236.382950,473.963104 219.194153,480.813690 
	C209.936508,484.503296 200.597153,488.010223 191.179688,491.267151 
	C186.385117,492.925354 181.380722,494.075012 176.392303,495.051666 
	C168.812180,496.535614 161.118301,497.450653 153.556641,499.013336 
	C146.104294,500.553436 142.909286,495.311005 139.735138,490.559570 
	C133.016235,480.501953 126.271332,470.409637 120.416992,459.843994 
	C116.176170,452.190430 113.301338,443.773254 109.917404,435.654877 
	C108.486336,432.221619 107.311928,428.681396 105.784355,424.550201 
	C107.869736,424.340485 109.289940,423.952637 110.652695,424.099091 
	C122.436729,425.365906 134.240173,426.511536 145.979752,428.117767 
	C160.919266,430.161804 175.604050,428.489532 190.287323,425.951447 
	C202.147034,423.901459 214.297348,422.918335 225.820145,419.684967 
	C241.141281,415.385773 256.048431,409.549622 270.989441,403.986969 
	C277.146881,401.694458 282.929932,398.396362 289.175415,395.317810 
z"/>
<path fill="#414548" opacity="1.000000" stroke="none" 
	d="
M205.339355,232.202698 
	C211.208145,217.412476 222.084793,207.934708 236.966003,203.030090 
	C251.626343,198.198273 265.943237,200.571457 280.219727,205.415939 
	C298.977936,211.781235 316.094788,221.142975 332.231232,232.474945 
	C333.696625,233.504028 335.322144,234.305145 336.631042,235.509674 
	C335.306366,235.508865 334.233185,235.170059 333.139862,234.919067 
	C328.016418,233.743027 324.208954,235.310303 322.848785,239.127808 
	C310.100037,229.855072 296.172974,222.584671 281.729401,216.532379 
	C267.660522,210.637115 252.804245,208.411850 238.026566,213.986954 
	C228.509445,217.577454 221.101349,224.148666 216.386276,233.421829 
	C215.952179,234.275589 215.200104,234.967651 213.980865,235.686432 
	C210.690475,234.492935 208.014908,233.347824 205.339355,232.202698 
z"/>
<path fill="#414548" opacity="1.000000" stroke="none" 
	d="
M186.080139,270.925293 
	C193.080261,274.772858 199.941940,278.905579 207.118622,282.389435 
	C214.611938,286.027039 222.270142,289.432068 230.116486,292.201416 
	C236.359161,294.404724 242.986252,295.528961 249.456085,297.076141 
	C258.416443,299.218872 266.280090,295.516052 273.841156,291.758392 
	C280.687286,288.355957 286.903564,283.778046 290.695557,276.264221 
	C294.208374,280.508087 298.372711,277.283691 301.891510,277.976654 
	C295.141663,290.924744 285.200439,300.905273 271.175598,304.805328 
	C254.338058,309.487518 237.266785,307.687622 221.298508,300.481110 
	C208.732101,294.809875 196.590469,288.165039 184.441269,281.616669 
	C179.126923,278.752228 174.264389,275.049561 169.429535,271.416748 
	C171.337967,271.740326 172.965805,272.610107 174.698776,272.961609 
	C178.714325,273.776062 182.660873,273.684784 186.080139,270.925293 
z"/>
<path fill="#414548" opacity="1.000000" stroke="none" 
	d="
M143.011993,252.993073 
	C167.160568,238.535599 189.620926,221.202621 215.442734,209.595093 
	C211.131424,218.455063 201.083466,228.452087 192.640808,233.733719 
	C182.584412,240.024887 172.650543,246.511902 161.924728,253.113953 
	C155.127914,253.206924 149.069962,253.100006 143.011993,252.993073 
z"/>
<path fill="#414548" opacity="1.000000" stroke="none" 
	d="
M364.202759,252.894196 
	C363.877625,254.131561 363.960541,256.000275 363.167145,256.513062 
	C347.386261,266.712311 331.575470,276.870148 315.602081,286.764069 
	C310.295563,290.050964 304.557495,292.658447 298.926208,295.389954 
	C297.715942,295.977020 296.114746,295.758209 293.086487,296.083008 
	C301.339783,287.079193 305.817963,276.886841 317.225494,272.737885 
	C323.330536,270.517426 328.500366,265.708832 334.066589,262.029358 
	C337.856750,259.523895 341.602356,256.951050 346.115417,254.229248 
	C352.642914,253.664856 358.422821,253.279526 364.202759,252.894196 
z"/>
<path fill="#0C0F12" opacity="1.000000" stroke="none" 
	d="
M272.913361,258.863159 
	C271.580048,262.376129 271.251465,267.098633 268.735870,269.188324 
	C258.933105,277.331299 241.733810,278.434418 234.758453,263.104645 
	C231.179260,255.238663 232.916794,240.279709 242.544739,238.318146 
	C243.353683,241.323883 243.839706,244.049957 244.435684,246.751755 
	C246.871033,257.792084 256.387146,264.900848 267.648682,263.838287 
	C268.843414,263.725555 269.884186,261.981598 271.119934,260.729797 
	C271.800079,259.931183 272.356720,259.397156 272.913361,258.863159 
z"/>
<path fill="#E8B28F" opacity="1.000000" stroke="none" 
	d="
M265.993134,226.940979 
	C264.229370,226.960968 262.465637,226.980972 260.288757,226.541229 
	C258.808716,223.866760 258.028870,221.424576 256.539429,219.544556 
	C255.906128,218.745178 253.018890,218.458939 252.478882,219.083420 
	C250.391434,221.497513 248.837280,224.372726 247.084442,227.076157 
	C245.594086,227.061523 244.103745,227.046906 242.290344,226.734619 
	C241.503540,225.770889 241.039780,225.104843 240.576035,224.438782 
	C240.171356,224.835251 239.766678,225.231720 239.362000,225.628189 
	C240.201599,226.133301 241.041199,226.638428 241.880798,227.143555 
	C241.379211,227.765778 240.890549,228.916183 240.374069,228.928818 
	C234.977921,229.060760 229.577316,229.010208 223.966736,229.010208 
	C227.408417,221.979584 231.331207,219.415359 235.950912,220.984497 
	C235.900650,216.090256 240.386353,215.729355 243.135452,215.323425 
	C245.984238,214.902756 249.941650,213.032059 252.577164,216.808884 
	C252.725845,217.021957 254.665543,215.985275 255.771652,215.530258 
	C255.745789,214.754364 255.719925,213.978470 255.694061,213.202576 
	C260.093292,214.457062 264.549042,215.552567 268.850403,217.082214 
	C269.875854,217.446884 270.385590,219.261612 271.140656,221.058807 
	C269.430237,223.452484 267.711670,225.196732 265.993134,226.940979 
z"/>
<path fill="#B9CE9B" opacity="1.000000" stroke="none" 
	d="
M220.897430,271.065277 
	C219.881958,271.090424 218.470810,271.560822 217.915924,271.067719 
	C214.585068,268.107605 213.421143,257.685883 215.816406,254.019989 
	C211.740097,249.685852 214.481033,245.182892 215.744370,240.881973 
	C216.278702,239.062912 218.052551,237.607956 219.937286,236.045959 
	C222.783783,238.413010 224.956009,240.721588 227.128235,243.030167 
	C226.762039,244.485901 226.395828,245.941650 225.578735,247.798737 
	C223.221085,250.966736 216.670639,249.469254 218.149475,254.602921 
	C218.729919,256.617859 223.123383,257.534332 225.780365,258.951050 
	C226.154617,261.396393 226.528854,263.841766 226.646164,266.825134 
	C224.558624,268.597198 222.728027,269.831238 220.897430,271.065277 
z"/>
<path fill="#414548" opacity="1.000000" stroke="none" 
	d="
M297.286438,250.172684 
	C295.227417,239.930054 290.456879,230.941742 284.659576,222.078964 
	C290.077850,224.522888 295.620270,226.736404 300.840546,229.547958 
	C302.454987,230.417480 303.840240,232.787613 304.212830,234.689651 
	C305.412201,240.812271 306.090088,247.037079 306.510651,253.640259 
	C304.743469,254.005997 303.434662,253.953979 302.060913,253.553467 
	C302.150757,251.985413 302.305573,250.765823 302.524048,249.044464 
	C300.412903,249.499222 298.849670,249.835953 297.286438,250.172684 
z"/>
<path fill="#414548" opacity="1.000000" stroke="none" 
	d="
M221.944473,285.056000 
	C209.646652,283.736786 201.881271,275.418182 201.550369,262.386475 
	C206.069061,264.433838 207.648346,259.581177 210.699371,258.964539 
	C211.396896,262.121460 211.520782,265.562805 212.914734,268.374451 
	C215.584259,273.758942 218.975647,278.785553 222.098312,284.396729 
	C222.129135,284.832825 221.944473,285.056000 221.944473,285.056000 
z"/>
<path fill="#4D5255" opacity="1.000000" stroke="none" 
	d="
M272.991394,258.473083 
	C272.356720,259.397156 271.800079,259.931183 270.702484,260.736694 
	C262.201874,260.198975 254.617691,258.388885 250.538757,250.601791 
	C248.336258,246.397018 246.988464,241.744583 245.582642,237.163239 
	C248.258499,236.010483 250.606796,234.988586 252.955078,233.966660 
	C255.205338,234.393799 257.455597,234.820938 259.472717,235.581116 
	C257.041138,236.032837 254.842697,236.151505 251.147125,236.350998 
	C253.058212,240.229462 254.464905,243.084290 255.954681,246.324799 
	C256.296265,250.175018 257.243469,253.171524 261.220459,254.277466 
	C261.326263,254.374054 261.700043,254.397141 261.700043,254.397141 
	C261.700043,254.397141 261.957672,254.065430 262.115295,253.991028 
	C262.272888,253.916641 262.620148,253.946579 263.012451,254.065414 
	C271.815338,256.423157 271.815338,256.423157 272.509705,249.997803 
	C273.139313,249.999420 273.498993,250.000351 273.858704,250.001282 
	C273.595642,252.695190 273.332550,255.389084 272.991394,258.473083 
z"/>
<path fill="#7B7E81" opacity="1.000000" stroke="none" 
	d="
M323.031799,239.361237 
	C324.208954,235.310303 328.016418,233.743027 333.139862,234.919067 
	C334.233185,235.170059 335.306366,235.508865 336.755371,235.836792 
	C342.381836,238.985138 347.641754,242.103928 352.692322,245.538788 
	C348.540222,245.499161 344.597443,245.143463 340.029755,244.731384 
	C340.458038,247.296631 340.694916,248.715515 340.931793,250.134415 
	C335.877350,246.805496 330.841980,243.446838 325.745911,240.182922 
	C325.058563,239.742691 324.066040,239.779007 323.031799,239.361237 
M337.501343,245.533936 
	C337.501343,245.533936 337.479095,245.482925 337.501343,245.533936 
z"/>
<path fill="#7B7E81" opacity="1.000000" stroke="none" 
	d="
M185.865250,270.658020 
	C182.660873,273.684784 178.714325,273.776062 174.698776,272.961609 
	C172.965805,272.610107 171.337967,271.740326 169.282867,271.105042 
	C165.131607,268.786072 161.359833,266.468018 157.386490,263.662018 
	C162.211578,262.427338 167.238235,261.680603 172.264893,260.933838 
	C176.726715,264.086151 181.188538,267.238434 185.865250,270.658020 
z"/>
<path fill="#989A9D" opacity="1.000000" stroke="none" 
	d="
M172.061462,260.626099 
	C167.238235,261.680603 162.211578,262.427338 157.071960,263.493011 
	C152.249451,260.881927 147.522018,257.979645 142.861237,254.974091 
	C142.448013,254.707626 142.469025,253.767761 142.650177,253.066879 
	C149.069962,253.100006 155.127914,253.206924 161.571198,253.160187 
	C165.257019,255.443802 168.557510,257.881073 172.061462,260.626099 
z"/>
<path fill="#7B7E81" opacity="1.000000" stroke="none" 
	d="
M292.965332,272.997589 
	C293.979584,268.597504 294.993835,264.197388 296.382996,259.486145 
	C300.221252,263.704712 303.547150,261.468201 306.867737,258.969574 
	C305.949585,263.713348 305.031433,268.457123 303.579102,273.555298 
	C299.685089,273.605682 296.325226,273.301636 292.965332,272.997589 
z"/>
<path fill="#242626" opacity="1.000000" stroke="none" 
	d="
M245.255066,237.294098 
	C246.988464,241.744583 248.336258,246.397018 250.538757,250.601791 
	C254.617691,258.388885 262.201874,260.198975 270.578949,261.001282 
	C269.884186,261.981598 268.843414,263.725555 267.648682,263.838287 
	C256.387146,264.900848 246.871033,257.792084 244.435684,246.751755 
	C243.839706,244.049957 243.353683,241.323883 242.911560,238.305817 
	C243.286026,237.843475 243.527313,237.638672 244.180054,237.251312 
	C244.838501,237.174271 245.046783,237.234177 245.255066,237.294098 
z"/>
<path fill="#C7AC3E" opacity="1.000000" stroke="none" 
	d="
M227.442657,243.142502 
	C224.956009,240.721588 222.783783,238.413010 220.324310,235.923340 
	C217.944260,232.633255 220.246216,231.279312 222.526688,231.127655 
	C227.897491,230.770508 233.308197,231.013168 239.487762,231.013168 
	C235.942337,235.602097 232.945343,239.548569 229.823959,243.394058 
	C229.573029,243.703186 228.466171,243.317581 227.442657,243.142502 
z"/>
<path fill="#989A9D" opacity="1.000000" stroke="none" 
	d="
M341.111023,250.416962 
	C340.694916,248.715515 340.458038,247.296631 340.029755,244.731384 
	C344.597443,245.143463 348.540222,245.499161 352.844025,245.864182 
	C356.722290,248.029663 360.239532,250.185822 363.979767,252.618103 
	C358.422821,253.279526 352.642914,253.664856 346.390015,254.025558 
	C344.374786,252.900467 342.832489,251.799988 341.111023,250.416962 
z"/>
<path fill="#B0493E" opacity="1.000000" stroke="none" 
	d="
M265.876160,227.267059 
	C267.711670,225.196732 269.430237,223.452484 271.254700,221.367371 
	C274.780609,218.916229 276.446411,221.056335 276.670380,223.890869 
	C277.067169,228.911667 276.781647,233.986404 276.781647,239.459625 
	C272.469788,236.140060 268.679535,233.301132 265.043701,230.276550 
	C264.744904,230.027985 265.495972,228.517349 265.876160,227.267059 
z"/>
<path fill="#176D43" opacity="1.000000" stroke="none" 
	d="
M229.961578,269.224579 
	C230.972107,269.059692 232.194336,269.005981 232.934708,269.577026 
	C235.722961,271.727631 238.156097,274.393372 241.102982,276.267517 
	C243.789917,277.976318 244.364319,279.132599 241.688980,281.266235 
	C239.619110,282.916992 237.849182,284.941895 235.794922,286.615143 
	C235.012527,287.252411 233.444778,287.951263 232.880676,287.596191 
	C231.980072,287.029297 231.215683,285.647461 231.099304,284.536316 
	C230.580185,279.579376 230.311310,274.596252 229.961578,269.224579 
z"/>
<path fill="#E3A5BE" opacity="1.000000" stroke="none" 
	d="
M282.708282,266.921753 
	C281.914886,265.261810 281.121521,263.601898 280.328125,261.941956 
	C280.739044,261.690582 281.149994,261.439209 281.560913,261.187805 
	C280.808136,260.997528 280.055359,260.807251 279.672913,260.342285 
	C283.052734,258.660065 286.062164,257.252563 289.071625,255.845062 
	C292.459930,255.144104 294.267273,255.767700 293.072815,259.873840 
	C292.081177,263.282745 291.818756,266.912964 290.711517,270.273224 
	C290.393341,271.238831 288.264252,271.607758 286.618439,272.411621 
	C285.083679,270.689270 283.895996,268.805511 282.708282,266.921753 
z"/>
<path fill="#7B7E81" opacity="1.000000" stroke="none" 
	d="
M205.158035,232.524216 
	C208.014908,233.347824 210.690475,234.492935 213.654846,235.813629 
	C213.232101,240.181213 212.520523,244.373199 211.217133,248.545166 
	C208.852448,243.269089 204.301270,245.531342 200.818909,244.901291 
	C202.204849,240.882767 203.590775,236.864243 205.158035,232.524216 
z"/>
<path fill="#87519D" opacity="1.000000" stroke="none" 
	d="
M282.355713,266.931702 
	C283.895996,268.805511 285.083679,270.689270 286.548401,272.752930 
	C288.103546,275.915833 286.372925,276.859039 283.895844,276.912750 
	C278.808289,277.023102 273.716644,276.945892 268.522614,276.945892 
	C271.770111,272.845764 274.752136,269.080811 277.758850,265.284729 
	C279.069611,265.796448 280.536377,266.369049 282.355713,266.931702 
z"/>
<path fill="#10A5DB" opacity="1.000000" stroke="none" 
	d="
M258.865479,281.023590 
	C260.523254,281.042236 262.181030,281.060913 264.432312,281.398987 
	C266.985504,283.582489 268.945160,285.446564 270.904816,287.310669 
	C271.270020,289.151703 271.766541,290.773041 268.778656,291.010986 
	C264.761353,291.330902 260.644379,293.976440 256.837952,289.200256 
	C257.392578,285.944397 258.129028,283.483978 258.865479,281.023590 
z"/>
<path fill="#E3A5BE" opacity="1.000000" stroke="none" 
	d="
M280.810333,246.044495 
	C280.538605,245.215256 280.266876,244.386017 280.197632,243.221863 
	C280.609741,242.869034 280.819397,242.851105 281.358704,242.823212 
	C282.308228,242.204926 282.928131,241.596588 283.781250,240.884201 
	C284.885529,239.848755 285.756561,238.917358 286.627625,237.985962 
	C290.238251,236.927109 292.658630,240.190002 292.014435,244.903564 
	C291.720703,247.052734 291.964539,249.275360 291.964539,251.798630 
	C291.697845,251.921799 290.715363,252.375565 289.201599,252.679245 
	C286.050293,250.367599 283.430298,248.206055 280.810333,246.044495 
z"/>
<path fill="#989A9D" opacity="1.000000" stroke="none" 
	d="
M271.270386,287.190796 
	C268.945160,285.446564 266.985504,283.582489 264.846130,281.425354 
	C265.569916,280.435425 266.453247,279.168213 267.380188,279.135437 
	C272.799255,278.943970 278.228577,279.041534 283.827240,279.041534 
	C280.987213,285.059875 275.839722,288.338898 271.270386,287.190796 
z"/>
<path fill="#CB7F71" opacity="1.000000" stroke="none" 
	d="
M281.029053,242.833160 
	C280.819397,242.851105 280.609741,242.869034 280.082947,242.900864 
	C279.538666,242.693069 279.114563,242.472580 279.113159,242.249451 
	C279.076843,236.432510 279.084381,230.615295 279.084381,224.772278 
	C287.581818,229.255966 289.239929,232.309128 286.263611,237.621429 
	C285.756561,238.917358 284.885529,239.848755 283.550049,240.468597 
	C282.400055,241.049072 281.714569,241.941116 281.029053,242.833160 
z"/>
<path fill="#10A5DB" opacity="1.000000" stroke="none" 
	d="
M251.890976,289.275848 
	C248.937775,293.263428 247.805359,294.532410 236.779755,288.325378 
	C239.789658,285.811157 242.631058,283.437653 245.773956,281.614685 
	C246.387802,282.487000 246.700134,282.808746 247.100311,283.466278 
	C248.755768,285.626648 250.323364,287.451233 251.890976,289.275848 
z"/>
<path fill="#CB7F71" opacity="1.000000" stroke="none" 
	d="
M280.489624,246.212128 
	C283.430298,248.206055 286.050293,250.367599 288.864258,252.803391 
	C289.040802,253.770798 289.023315,254.463959 289.038727,255.501099 
	C286.062164,257.252563 283.052734,258.660065 279.665649,259.998413 
	C279.581665,255.412781 279.875275,250.896286 280.489624,246.212128 
z"/>
<path fill="#C7AC3E" opacity="1.000000" stroke="none" 
	d="
M247.304337,227.426666 
	C248.837280,224.372726 250.391434,221.497513 252.478882,219.083420 
	C253.018890,218.458939 255.906128,218.745178 256.539429,219.544556 
	C258.028870,221.424576 258.808716,223.866760 259.859558,226.438034 
	C255.737030,227.122101 251.630630,227.449631 247.304337,227.426666 
z"/>
<path fill="#989A9D" opacity="1.000000" stroke="none" 
	d="
M200.462799,245.124451 
	C204.301270,245.531342 208.852448,243.269089 210.884369,248.788086 
	C211.006744,250.454376 210.870087,251.857727 210.365845,253.632019 
	C206.724609,253.958923 203.451004,253.914871 200.177383,253.870834 
	C200.153824,251.029755 200.130249,248.188675 200.462799,245.124451 
z"/>
<path fill="#176D43" opacity="1.000000" stroke="none" 
	d="
M252.043503,289.519958 
	C250.323364,287.451233 248.755768,285.626648 247.373276,283.314911 
	C247.619797,282.254791 247.681198,281.681793 247.742599,281.108765 
	C251.318329,280.849792 254.894058,280.590820 258.667633,280.677704 
	C258.129028,283.483978 257.392578,285.944397 256.694275,288.835083 
	C255.220306,289.431580 253.708176,289.597809 252.043503,289.519958 
z"/>
<path fill="#7B7E81" opacity="1.000000" stroke="none" 
	d="
M220.884705,271.399719 
	C222.728027,269.831238 224.558624,268.597198 226.663269,267.174438 
	C228.365524,271.981842 228.866699,276.939697 226.500900,282.905182 
	C223.672562,279.693573 221.472763,277.195709 219.261978,274.685303 
	C219.811768,273.677521 220.341873,272.705841 220.884705,271.399719 
z"/>
<path fill="#C7AC3E" opacity="1.000000" stroke="none" 
	d="
M225.845032,258.574463 
	C223.123383,257.534332 218.729919,256.617859 218.149475,254.602921 
	C216.670639,249.469254 223.221085,250.966736 225.467636,248.167145 
	C229.107727,251.455582 228.326630,254.818436 225.845032,258.574463 
z"/>
<path fill="#4D5255" opacity="1.000000" stroke="none" 
	d="
M200.129486,254.298416 
	C203.451004,253.914871 206.724609,253.958923 210.443756,253.957870 
	C210.882309,255.319962 210.875336,256.727142 210.783875,258.549438 
	C207.648346,259.581177 206.069061,264.433838 201.622406,261.976471 
	C200.884628,259.543030 200.483109,257.134521 200.129486,254.298416 
z"/>
<path fill="#989A9D" opacity="1.000000" stroke="none" 
	d="
M306.921143,258.569458 
	C303.547150,261.468201 300.221252,263.704712 296.457703,259.070312 
	C296.431305,257.561523 296.705078,256.157379 297.459717,254.362854 
	C299.335693,253.948990 300.730774,253.925476 302.125885,253.901947 
	C303.434662,253.953979 304.743469,254.005997 306.443298,254.101562 
	C306.881073,255.486526 306.927826,256.827942 306.921143,258.569458 
z"/>
<path fill="#7B7E81" opacity="1.000000" stroke="none" 
	d="
M255.871597,245.939133 
	C254.464905,243.084290 253.058212,240.229462 251.147125,236.350998 
	C254.842697,236.151505 257.041138,236.032837 259.680115,235.906067 
	C260.531464,235.929016 260.942261,235.960083 261.808746,236.324371 
	C262.816589,237.705978 263.368805,238.754379 263.554016,239.904922 
	C259.234558,240.117340 257.108856,242.480423 255.871597,245.939133 
z"/>
<path fill="#4D5255" opacity="1.000000" stroke="none" 
	d="
M263.920990,239.802780 
	C263.368805,238.754379 262.816589,237.705978 262.109375,236.397308 
	C267.806854,236.931427 273.823578,243.491623 273.897034,249.600800 
	C273.498993,250.000351 273.139313,249.999420 272.389404,249.670288 
	C271.284821,248.851990 270.570496,248.361893 269.880432,247.516708 
	C267.910156,244.708679 265.915558,242.255722 263.920990,239.802780 
z"/>
<path fill="#4D5255" opacity="1.000000" stroke="none" 
	d="
M292.671692,273.118164 
	C296.325226,273.301636 299.685089,273.605682 303.435486,273.906311 
	C303.292206,275.072723 302.758423,276.242523 302.058044,277.694458 
	C298.372711,277.283691 294.208374,280.508087 290.953064,276.045227 
	C291.209625,274.987793 291.793793,274.113251 292.671692,273.118164 
z"/>
<path fill="#7B7E81" opacity="1.000000" stroke="none" 
	d="
M302.060913,253.553482 
	C300.730774,253.925476 299.335693,253.948990 297.523926,253.999191 
	C297.113190,252.994843 297.119141,251.963821 297.205750,250.552734 
	C298.849670,249.835953 300.412903,249.499222 302.524048,249.044464 
	C302.305573,250.765823 302.150757,251.985413 302.060913,253.553482 
z"/>
<path fill="#0C0F12" opacity="1.000000" stroke="none" 
	d="
M245.582642,237.163239 
	C245.046783,237.234177 244.838501,237.174271 244.311066,237.052017 
	C245.463608,232.633453 248.993286,233.413345 252.631683,233.812042 
	C250.606796,234.988586 248.258499,236.010483 245.582642,237.163239 
z"/>
<path fill="#414548" opacity="1.000000" stroke="none" 
	d="
M428.691956,354.188110 
	C428.886963,354.936798 428.811310,355.887054 428.453949,356.931213 
	C428.255249,356.146606 428.338257,355.268127 428.691956,354.188110 
z"/>
<path fill="#414548" opacity="1.000000" stroke="none" 
	d="
M222.215729,284.716736 
	C222.801743,285.091858 223.315536,285.570648 223.772537,286.098602 
	C223.807922,286.139465 223.444626,286.525452 223.266632,286.751038 
	C222.846542,286.401154 222.426437,286.051239 221.975403,285.378662 
	C221.944473,285.056000 222.129135,284.832825 222.215729,284.716736 
z"/>
<path fill="#414548" opacity="1.000000" stroke="none" 
	d="
M428.130920,332.270874 
	C428.550842,332.536163 428.931488,333.099457 429.131042,333.840637 
	C428.663818,333.535309 428.377716,333.052094 428.130920,332.270874 
z"/>
<path fill="#E3A5BE" opacity="1.000000" stroke="none" 
	d="
M247.503815,281.212036 
	C247.681198,281.681793 247.619797,282.254791 247.285431,282.979156 
	C246.700134,282.808746 246.387802,282.487000 246.010971,281.812622 
	C246.385986,281.411774 246.825500,281.363556 247.503815,281.212036 
z"/>
<path fill="#4D5255" opacity="1.000000" stroke="none" 
	d="
M150.310623,348.722473 
	C150.341675,348.864380 150.234985,349.128448 150.019669,349.248077 
	C149.911041,349.103607 150.172867,348.844635 150.310623,348.722473 
z"/>
<path fill="#000000" opacity="1.000000" stroke="none" 
	d="
M241.846146,227.173416 
	C241.041199,226.638428 240.201599,226.133301 239.362000,225.628189 
	C239.766678,225.231720 240.171356,224.835251 240.576035,224.438782 
	C241.039780,225.104843 241.503540,225.770889 241.859100,226.854401 
	C241.750900,227.271851 241.811493,227.203278 241.846146,227.173416 
z"/>
<path fill="#000000" opacity="1.000000" stroke="none" 
	d="
M263.554016,239.904922 
	C265.915558,242.255722 267.910156,244.708679 269.599426,247.718292 
	C267.069458,250.165512 264.844788,252.056046 262.620148,253.946579 
	C262.620148,253.946579 262.272888,253.916641 261.901398,253.997116 
	C261.529907,254.077591 261.114685,254.180862 261.114685,254.180862 
	C257.243469,253.171524 256.296265,250.175018 255.954681,246.324799 
	C257.108856,242.480423 259.234558,240.117340 263.554016,239.904922 
z"/>
<path fill="#7B7E81" opacity="1.000000" stroke="none" 
	d="
M263.012451,254.065414 
	C264.844788,252.056046 267.069458,250.165512 269.575134,248.073395 
	C270.570496,248.361893 271.284821,248.851990 272.119507,249.669617 
	C271.815338,256.423157 271.815338,256.423157 263.012451,254.065414 
z"/>
<path fill="#7B7E81" opacity="1.000000" stroke="none" 
	d="
M261.220459,254.277466 
	C261.114685,254.180862 261.529907,254.077591 261.743774,254.071503 
	C261.957672,254.065430 261.700043,254.397141 261.700043,254.397141 
	C261.700043,254.397141 261.326263,254.374054 261.220459,254.277466 
z"/>
<path fill="#989A9D" opacity="1.000000" stroke="none" 
	d="
M337.490234,245.508423 
	C337.479095,245.482925 337.501343,245.533936 337.490234,245.508423 
z"/>
<path fill="#000000" opacity="1.000000" stroke="none" 
	d="
M281.358704,242.823212 
	C281.714569,241.941116 282.400055,241.049072 283.316803,240.572632 
	C282.928131,241.596588 282.308228,242.204926 281.358704,242.823212 
z"/>
</svg>